<svg xmlns="http://www.w3.org/2000/svg" width="16" height="16" fill="context-fill" fill-opacity="context-fill-opacity"><path d="M4 0a2 2 0 0 0-2 2v12a2 2 0 0 0 2 2h4.35a5.8 5.8 0 0 1-1.076-1H4.001a1 1 0 0 1-1-1h3.605a5.4 5.4 0 0 1-.406-1H3V2a1 1 0 0 1 1-1h8a1 1 0 0 1 1 1v4.199a5.2 5.2 0 0 1 1 .398V2a2 2 0 0 0-2-2zm1 2a1 1 0 0 0-1 1v1a1 1 0 0 0 1 1h6a1 1 0 0 0 1-1V3a1 1 0 0 0-1-1zm0 1h6v1H5z"/><path d="M16 11.5a4.5 4.5 0 1 1-9 0 4.5 4.5 0 0 1 9 0m-4-2a.5.5 0 0 0-1 0V11H9.5a.5.5 0 0 0 0 1H11v1.5a.5.5 0 0 0 1 0V12h1.5a.5.5 0 0 0 0-1H12z"/></svg>