<svg xmlns="http://www.w3.org/2000/svg" width="16" height="16" fill="context-fill" fill-opacity="context-fill-opacity"><path d="M4 1a3 3 0 0 0-3 3v8a3 3 0 0 0 3 3h2.006a2 2 0 0 1 .05-.348L6.22 14H4c-.355 0-.704-.094-1.011-.273L7.65 9.145a.496.496 0 0 1 .7 0l.73.716.707-.707-.737-.722a1.5 1.5 0 0 0-2.102 0l-4.67 4.588A2 2 0 0 1 2 12V4a2 2 0 0 1 2-2h8a2 2 0 0 1 2 2v2.006q.066-.005.13-.006h.003c.305 0 .596.051.867.139v-2.14a3 3 0 0 0-3-3zm6.5 3c-2 0-2 3 0 3s2-3 0-3m0 1c.667 0 .667 1 0 1s-.667-1 0-1"/><path d="M14.13 7c-.478 0-.957.18-1.322.547l-4.828 4.83a2.2 2.2 0 0 0-.578 1.02l-.375 1.498a.89.89 0 0 0 1.078 1.078l1.498-.375a2.2 2.2 0 0 0 1.02-.578l4.828-4.828A1.872 1.872 0 0 0 14.13 7m-.002 1.002c.427.002.671.224.8.537.13.314.116.643-.187.947l-4.826 4.826a1.2 1.2 0 0 1-.556.315l-1.316.332.33-1.32H8.37c.053-.21.163-.403.316-.557l4.828-4.83a.85.85 0 0 1 .614-.25m-6.266 7 .002.002H7.86z"/></svg>