<svg xmlns="http://www.w3.org/2000/svg" width="16" height="16" viewBox="0 0 768 768"><path fill="context-fill" fill-opacity="context-fill-opacity" d="M128 352v-64c0-26.528 10.72-50.464 28.128-67.872S197.472 192 224 192h370.752l-73.376 73.376c-12.512 12.512-12.512 32.768 0 45.248s32.768 12.512 45.248 0l128-128c3.072-3.072 5.376-6.592 6.944-10.368S704 164.352 704 160c0-4.16-.8-8.352-2.432-12.256a31.9 31.9 0 0 0-6.944-10.368l-128-128c-12.512-12.512-32.768-12.512-45.248 0s-12.512 32.768 0 45.248L594.752 128H224c-44.16 0-84.224 17.952-113.152 46.848S64 243.84 64 288v64c0 17.664 14.336 32 32 32s32-14.336 32-32m512 64v64c0 26.528-10.72 50.464-28.128 67.872S570.528 576 544 576H173.248l73.376-73.376c12.512-12.512 12.512-32.768 0-45.248s-32.768-12.512-45.248 0l-128 128c-2.944 2.944-5.312 6.464-6.944 10.368S64 603.84 64 608a31.9 31.9 0 0 0 9.376 22.624l128 128c12.512 12.512 32.768 12.512 45.248 0s12.512-32.768 0-45.248L173.248 640H544c44.16 0 84.224-17.952 113.152-46.848S704 524.16 704 480v-64c0-17.664-14.336-32-32-32s-32 14.336-32 32"/></svg>