<svg xmlns="http://www.w3.org/2000/svg" width="16" height="16" fill="context-fill" fill-opacity="context-fill-opacity"><path d="M8.85.01a1 1 0 0 0-.53.26L4.446 3.865a.5.5 0 0 1-.34.133H1.5a1.5 1.5 0 0 0-1.5 1.5v5.003a1.5 1.5 0 0 0 1.5 1.5h2.607a.5.5 0 0 1 .34.134l3.872 3.595c.64.594 1.68.141 1.68-.732V1.002c0-.655-.586-1.074-1.149-.992m.15.992v13.996l-3.873-3.596a1.5 1.5 0 0 0-1.02-.4H1.5a.5.5 0 0 1-.5-.5V5.498a.5.5 0 0 1 .5-.5h2.607c.378 0 .742-.143 1.02-.401zm4.62 1.495a.502.502 0 0 0-.4.834 7.007 7.007 0 0 1 0 9.337.5.5 0 0 0 .04.708c.205.184.52.166.704-.04a8.01 8.01 0 0 0 0-10.673.5.5 0 0 0-.344-.166m-1.35 2.505a.5.5 0 0 0-.371.746 4.5 4.5 0 0 1 0 4.503.501.501 0 0 0 .868.5 5.5 5.5 0 0 0-.002-5.502.5.5 0 0 0-.494-.247z"/></svg>