<svg xmlns="http://www.w3.org/2000/svg" width="16" height="16" fill="context-fill" fill-opacity="context-fill-opacity" viewBox="0 0 16 16"><path d="M0 4.6c0-1.3 1-2.3 2.3-2.3h9.1c1.3 0 2.3 1 2.3 2.3v4.6c0 1.3-1 2.3-2.3 2.3H2.3C1 11.5 0 10.5 0 9.2zm2.3-1.2c-.6 0-1.1.5-1.1 1.1v4.6c0 .6.5 1.1 1.1 1.1h9.1c.6 0 1.1-.5 1.1-1.1V4.5c0-.6-.5-1.1-1.1-1.1zm.3 9.2c.4.7 1.1 1.1 2 1.1h6.9c2.5 0 4.6-2 4.6-4.6V6.8c0-.8-.5-1.6-1.1-2v4.3c0 1.9-1.5 3.4-3.4 3.4h-9Zm2.3-6.1c-.2 0-.4.2-.4.4s.2.4.4.4h3.9c.2 0 .4-.2.4-.4s-.2-.4-.4-.4zm1.6 2.3c0 .2.2.4.4.4s.4-.2.4-.4V4.9c0-.2-.2-.4-.4-.4s-.4.2-.4.4z"/></svg>