<svg xmlns="http://www.w3.org/2000/svg" width="16" height="16" fill="context-fill" fill-opacity="context-fill-opacity"><path d="M4 1a2.54 2.54 0 0 0-2.42 1.787L.17 7.375A3.8 3.8 0 0 0 0 8.5v3.25A2.26 2.26 0 0 0 2.25 14h11.5A2.26 2.26 0 0 0 16 11.75V8.5c0-.381-.058-.76-.17-1.125l-1.41-4.588A2.54 2.54 0 0 0 12 1zm0 1h8c.674 0 1.265.436 1.463 1.08l1.281 4.164A2.2 2.2 0 0 0 13.75 7H2.25c-.358 0-.693.093-.994.244L2.537 3.08A1.53 1.53 0 0 1 4 2M2.25 8h11.5c.696 0 1.25.554 1.25 1.25v2.5c0 .696-.554 1.25-1.25 1.25H2.25C1.554 13 1 12.446 1 11.75v-2.5C1 8.554 1.554 8 2.25 8m8.25 1.875a.625.625 0 0 0-.625.625.625.625 0 0 0 .625.625.625.625 0 0 0 .625-.625.625.625 0 0 0-.625-.625m2 0a.625.625 0 0 0-.625.625.625.625 0 0 0 .625.625.625.625 0 0 0 .625-.625.625.625 0 0 0-.625-.625"/></svg>