<svg xmlns="http://www.w3.org/2000/svg" fill="context-fill" fill-opacity="context-fill-opacity" viewBox="0 0 32 32"><path d="M23.029 1.412C20.823-.794 17.103-.191 15.708 2.6l-3.629 7.258c-.203.407-.56.716-.991.86l-5.694 1.898c-1.612.537-2.095 2.583-.893 3.785l4.741 4.741-6.955 6.955v1.616h1.616l6.955-6.955 4.741 4.741c1.201 1.201 3.247.719 3.785-.893l1.898-5.694c.144-.431.453-.788.86-.991l7.258-3.629c2.791-1.395 3.394-5.115 1.188-7.321L23.03 1.413Zm-5.277 2.211a2.286 2.286 0 0 1 3.661-.594l7.558 7.558a2.286 2.286 0 0 1-.594 3.661l-7.258 3.629a4 4 0 0 0-2.006 2.313l-1.898 5.694L6.116 14.785l5.694-1.898a4 4 0 0 0 2.313-2.006z"/></svg>