<svg xmlns="http://www.w3.org/2000/svg" width="16" height="16" fill="context-fill" fill-opacity="context-fill-opacity"><path d="M3.25 0A2.26 2.26 0 0 0 1 2.25v9.5A2.26 2.26 0 0 0 3.25 14h3.99c-.11-.322-.225-.66-.235-1H3.25C2.555 13 2 12.446 2 11.75V4h13V2.25A2.26 2.26 0 0 0 12.75 0zm0 1h9.5c.696 0 1.25.554 1.25 1.25V3H2v-.75C2 1.554 2.554 1 3.25 1"/><path d="M12 5a2.5 2.5 0 1 0 2 4h-2a1.5 1.5 0 0 1 0-3h2a2.5 2.5 0 0 0-2-1m0 2v1h2.45a2.5 2.5 0 0 0 0-1zm-2.45 4c-.464 0-.855.236-1.116.53-.26.29-.434.684-.434 1.09v.32C8 14.573 9.633 16 12 16c1.24 0 2.28-.392 2.988-1H12c-2.03 0-3-1.172-3-2.06v-.32c0-.126.06-.29.182-.427.119-.133.254-.193.369-.193h6.316a1.8 1.8 0 0 0-.3-.47c-.262-.294-.653-.53-1.118-.53zM12 13v1h3.762c.147-.315.23-.653.238-1z"/></svg>