<svg xmlns="http://www.w3.org/2000/svg" width="16" height="16" fill="context-fill" fill-opacity="context-fill-opacity"><path d="M2 1C.901 1 0 1.901 0 3v10c0 1.099.901 2 2 2h12c1.099 0 2-.901 2-2V3c0-1.099-.901-2-2-2zm0 1h7v12H2c-.558 0-1-.442-1-1V3c0-.558.442-1 1-1m8 0h4c.558 0 1 .442 1 1v10c0 .558-.442 1-1 1h-4zm1.5 2a.5.5 0 0 0-.5.5.5.5 0 0 0 .5.5h2a.5.5 0 0 0 .5-.5.5.5 0 0 0-.5-.5zm0 3a.5.5 0 0 0-.5.5.5.5 0 0 0 .5.5h2a.5.5 0 0 0 .5-.5.5.5 0 0 0-.5-.5zm0 3a.5.5 0 0 0-.5.5.5.5 0 0 0 .5.5h2a.5.5 0 0 0 .5-.5.5.5 0 0 0-.5-.5z"/></svg>