<svg xmlns="http://www.w3.org/2000/svg" fill="none" stroke="context-fill" stroke-linecap="round" stroke-linejoin="round" stroke-opacity="context-fill-opacity" stroke-width="1.001"><defs><clipPath id="b"><path d="m3 6 11 11h3V3H3Z"/></clipPath><clipPath id="c"><path d="M5 3 3 5l12 12 2-2zm10 0-2 2 2 2 2-2z"/></clipPath><clipPath id="f"><path d="m5 3 12 12-2 2L3 5Z"/></clipPath><clipPath id="i"><path d="m5 3 7 7-2 2-7-7z"/></clipPath><clipPath id="k"><path d="m5 3 2 2-2 2-2-2Z"/></clipPath><clipPath id="d"><path d="m16 3-4 6h10Z"/></clipPath><clipPath id="h"><path d="m11 11 8 6V4h-4z"/></clipPath><clipPath id="j"><path d="m11 11-1 9h9V0l-7 8z"/></clipPath><clipPath id="l"><path d="M16 3 3 17v3h16V3Z"/></clipPath><clipPath id="m"><path d="m16 3-3 4-13 3v10h19V3Z"/></clipPath><clipPath id="n"><path d="m16 3-3 4L0 2v18h20V3Z"/></clipPath><clipPath id="o"><path d="m16 3-3 4-8-7H0v20h20V3Z"/></clipPath><clipPath id="p"><path d="m16 3-3 4-2-7H0v20h20V3Z"/></clipPath><path id="e" d="M17.48 9.5v.5c0 4.1-3.4 7.5-7.5 7.5s-7.5-3.4-7.5-7.5 3.4-7.5 7.5-7.5c2.8 0 5.2 1.5 6.5 3.8m.02-3.8v4h-4"/><path id="a" d="m4.5 4.5 11 11m-11 0 11-11"/></defs><svg><use href="#a"/></svg><svg x="20"><use clip-path="url(#b)" href="#a"/></svg><svg x="40"><use clip-path="url(#c)" href="#a"/></svg><svg x="60"><g clip-path="url(#d)"><use href="#e" transform="rotate(40 10 10)"/></g><use clip-path="url(#f)" href="#a"/></svg><svg x="80"><g clip-path="url(#h)"><use href="#e" transform="rotate(80 10 10)"/></g><use clip-path="url(#i)" href="#a"/></svg><svg x="100"><g clip-path="url(#j)"><use href="#e" transform="rotate(120 10 10)"/></g><use clip-path="url(#k)" href="#a"/></svg><svg x="120"><g clip-path="url(#l)"><use href="#e" transform="rotate(160 10 10)"/></g></svg><svg x="140"><g clip-path="url(#m)"><use href="#e" transform="rotate(200 10 10)"/></g></svg><svg x="160"><g clip-path="url(#n)"><use href="#e" transform="rotate(250 10 10)"/></g></svg><svg x="180"><g clip-path="url(#o)"><use href="#e" transform="rotate(270 10 10)"/></g></svg><svg x="200"><g clip-path="url(#p)"><use href="#e" transform="rotate(300 10 10)"/></g></svg><svg x="220"><use href="#e" transform="rotate(335 10 10)"/></svg><svg x="240"><use href="#e" transform="rotate(345 10 10)"/></svg><svg x="260"><use href="#e" transform="rotate(355 10 10)"/></svg><svg x="280"><use href="#e"/></svg></svg>