<svg xmlns="http://www.w3.org/2000/svg" fill="context-fill" fill-opacity="context-fill-opacity" viewBox="0 0 32 32"><path d="m20.785 22.402-1.402 4.206c-.537 1.612-2.583 2.095-3.785.893l-4.741-4.742-6.955 6.955H2.286v-1.616l6.955-6.955L4.5 16.402c-1.201-1.202-.719-3.247.893-3.785l4.205-1.402L.335 1.951A1.143 1.143 0 0 1 1.951.335l29.714 29.714a1.143 1.143 0 0 1-1.616 1.616l-9.264-9.264Zm-1.807-1.807-7.573-7.573-5.29 1.763 11.099 11.099zm9.399-6.347-6.726 3.363 1.704 1.704 6.045-3.022c2.791-1.395 3.394-5.115 1.188-7.321L23.03 1.413C20.824-.793 17.104-.19 15.709 2.601l-3.022 6.045 1.704 1.704 3.363-6.726a2.286 2.286 0 0 1 3.661-.594l7.558 7.559a2.286 2.286 0 0 1-.594 3.661Z"/></svg>