<svg xmlns="http://www.w3.org/2000/svg" viewBox="0 0 80.04 79.86"><defs><radialGradient id="a" cx="-1136.61" cy="-313.39" r=".9" gradientTransform="matrix(80.02 0 0 79.86 91030.51 25039.82)" gradientUnits="userSpaceOnUse"><stop offset="0" stop-color="#fff36e"/><stop offset=".5" stop-color="#fc4055"/><stop offset="1" stop-color="#e31587"/></radialGradient><radialGradient id="b" cx="-1137.47" cy="-313.36" r=".7" gradientTransform="matrix(80.02 0 0 79.86 91030.51 25039.82)" gradientUnits="userSpaceOnUse"><stop offset="0" stop-color="#c60084"/><stop offset="1" stop-color="#fc4055" stop-opacity="0"/></radialGradient><radialGradient id="c" cx="-1136.47" cy="-313.46" r="1.33" gradientTransform="matrix(80.02 0 0 79.86 91030.51 25039.82)" gradientUnits="userSpaceOnUse"><stop offset="0" stop-color="#ffde67" stop-opacity=".6"/><stop offset=".66" stop-color="#fc4055" stop-opacity="0"/></radialGradient><radialGradient id="d" cx="-1137.13" cy="-313.03" r="1.75" gradientTransform="matrix(80.02 0 0 79.86 91030.51 25039.82)" gradientUnits="userSpaceOnUse"><stop offset=".15" stop-color="#810220"/><stop offset=".27" stop-color="#fc4055" stop-opacity="0"/></radialGradient><radialGradient id="e" cx="-1137.04" cy="-312.99" r="1.6" gradientTransform="matrix(80.02 0 0 79.86 91030.51 25039.82)" gradientUnits="userSpaceOnUse"><stop offset=".12" stop-color="#810220"/><stop offset=".3" stop-color="#fc4055" stop-opacity="0"/></radialGradient><radialGradient id="f" cx="-1134.98" cy="-312.47" r="1.11" gradientTransform="matrix(71.58 0 0 71.75 81308.57 22427.9)" gradientUnits="userSpaceOnUse"><stop offset="0" stop-color="#ff9640"/><stop offset=".8" stop-color="#fc4055"/></radialGradient><radialGradient id="g" cx="-1134.97" cy="-312.4" r="1.13" gradientTransform="matrix(71.58 0 0 71.75 81308.57 22427.9)" gradientUnits="userSpaceOnUse"><stop offset=".09" stop-color="#ffde67"/><stop offset=".82" stop-color="#ff9640" stop-opacity="0"/></radialGradient><radialGradient id="h" cx="-1135.25" cy="-312.09" r=".54" gradientTransform="matrix(71.58 0 0 71.75 81308.57 22427.9)" gradientUnits="userSpaceOnUse"><stop offset=".36" stop-color="#fc4055"/><stop offset=".59" stop-color="#ff9640" stop-opacity="0"/></radialGradient><radialGradient id="i" cx="-1135.35" cy="-312.06" r=".54" gradientTransform="matrix(71.58 0 0 71.75 81308.57 22427.9)" gradientUnits="userSpaceOnUse"><stop offset=".22" stop-color="#fc4055" stop-opacity=".8"/><stop offset=".47" stop-color="#ff9640" stop-opacity="0"/></radialGradient><radialGradient id="j" cx="-1130.08" cy="-310.02" r="1.7" gradientTransform="matrix(55.38 0 0 56.5 62665.27 17519.34)" gradientUnits="userSpaceOnUse"><stop offset=".05" stop-color="#fff36e"/><stop offset=".55" stop-color="#ff9640"/><stop offset=".7" stop-color="#ff9640"/></radialGradient><linearGradient id="k" x1="-1130.5" x2="-1130.21" y1="-308.51" y2="-307.69" gradientTransform="matrix(54.66 0 0 50.14 61830.19 15468.97)" gradientUnits="userSpaceOnUse"><stop offset="0" stop-color="#b833e1"/><stop offset=".37" stop-color="#9059ff"/><stop offset="1" stop-color="#0090ed"/></linearGradient><linearGradient id="l" x1="-1130.17" x2="-1130.7" y1="-307.9" y2="-308.51" gradientTransform="matrix(54.66 0 0 50.14 61830.19 15468.97)" gradientUnits="userSpaceOnUse"><stop offset="0" stop-color="#592acb" stop-opacity=".5"/><stop offset=".24" stop-color="#722291" stop-opacity="0"/></linearGradient><linearGradient id="m" x1="-1136.85" x2="-1137.39" y1="-312.43" y2="-311.53" gradientTransform="matrix(80.02 0 0 71.19 91030.19 22256.38)" gradientUnits="userSpaceOnUse"><stop offset="0" stop-color="#fff36e" stop-opacity=".8"/><stop offset=".09" stop-color="#fff36e" stop-opacity=".7"/><stop offset=".75" stop-color="#fff36e" stop-opacity="0"/></linearGradient></defs><g data-name="Layer 2"><g data-name="katman 1"><path d="M72 15.7A39.45 39.45 0 0 0 41.61 0c-9.29-.19-15.7 2.6-19.33 4.85C27.14 2 34.17.44 40.32.52c15.83.2 32.83 11 35.36 30.41 2.9 22.31-12.64 40.92-34.49 41C17.14 72 2.52 50.68 6.34 31.56a20 20 0 0 1 .41-2.79 38 38 0 0 1 4.19-14c-2.77 1.43-6.29 6-8 10.16A41.4 41.4 0 0 0 .31 45.09c.06.52.11 1 .18 1.55A40.07 40.07 0 1 0 72 15.7" style="fill:url(#a)"/><path d="M72 15.7A39.45 39.45 0 0 0 41.61 0c-9.29-.19-15.7 2.6-19.33 4.85C27.14 2 34.17.44 40.32.52c15.83.2 32.83 11 35.36 30.41 2.9 22.31-12.64 40.92-34.49 41C17.14 72 2.52 50.68 6.34 31.56a20 20 0 0 1 .41-2.79 38 38 0 0 1 4.19-14c-2.77 1.43-6.29 6-8 10.16A41.4 41.4 0 0 0 .31 45.09c.06.52.11 1 .18 1.55A40.07 40.07 0 1 0 72 15.7" style="isolation:isolate;opacity:.67;fill:url(#b)"/><path d="M72 15.7A39.45 39.45 0 0 0 41.61 0c-9.29-.19-15.7 2.6-19.33 4.85C27.14 2 34.17.44 40.32.52c15.83.2 32.83 11 35.36 30.41 2.9 22.31-12.64 40.92-34.49 41C17.14 72 2.52 50.68 6.34 31.56a20 20 0 0 1 .41-2.79 38 38 0 0 1 4.19-14c-2.77 1.43-6.29 6-8 10.16A41.4 41.4 0 0 0 .31 45.09c.06.52.11 1 .18 1.55A40.07 40.07 0 1 0 72 15.7" style="fill:url(#c)"/><path d="M72 15.7A39.45 39.45 0 0 0 41.61 0c-9.29-.19-15.7 2.6-19.33 4.85C27.14 2 34.17.44 40.32.52c15.83.2 32.83 11 35.36 30.41 2.9 22.31-12.64 40.92-34.49 41C17.14 72 2.52 50.68 6.34 31.56a20 20 0 0 1 .41-2.79 38 38 0 0 1 4.19-14c-2.77 1.43-6.29 6-8 10.16A41.4 41.4 0 0 0 .31 45.09c.06.52.11 1 .18 1.55A40.07 40.07 0 1 0 72 15.7" style="fill:url(#d)"/><path d="M72 15.7A39.45 39.45 0 0 0 41.61 0c-9.29-.19-15.7 2.6-19.33 4.85C27.14 2 34.17.44 40.32.52c15.83.2 32.83 11 35.36 30.41 2.9 22.31-12.64 40.92-34.49 41C17.14 72 2.52 50.68 6.34 31.56a20 20 0 0 1 .41-2.79 38 38 0 0 1 4.19-14c-2.77 1.43-6.29 6-8 10.16A41.4 41.4 0 0 0 .31 45.09c.06.52.11 1 .18 1.55A40.07 40.07 0 1 0 72 15.7" style="fill:url(#e)"/><path d="M76.66 29.83C74.41 9.52 56.3.39 40.33.53c-6.15 0-13.18 1.52-18 4.34a19.5 19.5 0 0 0-3.56 2.7c.13-.11.51-.42 1.15-.86h.12a26.7 26.7 0 0 1 7.69-3.57 43.2 43.2 0 0 1 13.14-1.62 33.26 33.26 0 0 1 31.25 32c.37 13.21-10.44 23.74-22.9 24.35-9.06.44-17.6-3.94-21.77-12.71a21.4 21.4 0 0 1-2-6.33c-2-13.35 7-24.74 15.21-27.55-4.4-3.88-15.51-3.62-23.78 2.46-6 4.38-9.82 11-11.1 19a33 33 0 0 0 2.34 18 35.29 35.29 0 0 0 30.09 21.44c1 .08 2 .11 3 .11 26.44-.02 37.92-20.11 35.45-42.46" style="fill:url(#f)"/><path d="M76.66 29.83C74.41 9.52 56.3.39 40.33.53c-6.15 0-13.18 1.52-18 4.34a19.5 19.5 0 0 0-3.56 2.7c.13-.11.51-.42 1.15-.86h.12a26.7 26.7 0 0 1 7.69-3.57 43.2 43.2 0 0 1 13.14-1.62 33.26 33.26 0 0 1 31.25 32c.37 13.21-10.44 23.74-22.9 24.35-9.06.44-17.6-3.94-21.77-12.71a21.4 21.4 0 0 1-2-6.33c-2-13.35 7-24.74 15.21-27.55-4.4-3.88-15.51-3.62-23.78 2.46-6 4.38-9.82 11-11.1 19a33 33 0 0 0 2.34 18 35.29 35.29 0 0 0 30.09 21.44c1 .08 2 .11 3 .11 26.44-.02 37.92-20.11 35.45-42.46" style="fill:url(#g)"/><path d="M76.66 29.83C74.41 9.52 56.3.39 40.33.53c-6.15 0-13.18 1.52-18 4.34a19.5 19.5 0 0 0-3.56 2.7c.13-.11.51-.42 1.15-.86h.12a26.7 26.7 0 0 1 7.69-3.57 43.2 43.2 0 0 1 13.14-1.62 33.26 33.26 0 0 1 31.25 32c.37 13.21-10.44 23.74-22.9 24.35-9.06.44-17.6-3.94-21.77-12.71a21.4 21.4 0 0 1-2-6.33c-2-13.35 7-24.74 15.21-27.55-4.4-3.88-15.51-3.62-23.78 2.46-6 4.38-9.82 11-11.1 19a33 33 0 0 0 2.34 18 35.29 35.29 0 0 0 30.09 21.44c1 .08 2 .11 3 .11 26.44-.02 37.92-20.11 35.45-42.46" style="isolation:isolate;opacity:.53;fill:url(#h)"/><path d="M76.66 29.83C74.41 9.52 56.3.39 40.33.53c-6.15 0-13.18 1.52-18 4.34a19.5 19.5 0 0 0-3.56 2.7c.13-.11.51-.42 1.15-.86h.12a26.7 26.7 0 0 1 7.69-3.57 43.2 43.2 0 0 1 13.14-1.62 33.26 33.26 0 0 1 31.25 32c.37 13.21-10.44 23.74-22.9 24.35-9.06.44-17.6-3.94-21.77-12.71a21.4 21.4 0 0 1-2-6.33c-2-13.35 7-24.74 15.21-27.55-4.4-3.88-15.51-3.62-23.78 2.46-6 4.38-9.82 11-11.1 19a33 33 0 0 0 2.34 18 35.29 35.29 0 0 0 30.09 21.44c1 .08 2 .11 3 .11 26.44-.02 37.92-20.11 35.45-42.46" style="isolation:isolate;opacity:.53;fill:url(#i)"/><path d="M49.22 57.84c17.1-1 24.42-15.2 24.88-25.24.72-15.69-8.6-32.6-33.23-31.1a43.4 43.4 0 0 0-13.18 1.55A29 29 0 0 0 20 6.62h-.12c-.38.27-.76.55-1.12.84a33.47 33.47 0 0 1 21-3.94C53.88 5.46 66.81 16.46 66.81 31c0 11.17-8.63 19.7-18.74 19.09-15-.9-18.8-16.3-11-23-2.11-.45-6.06.43-8.82 4.56-2.47 3.7-2.33 9.41-.81 13.46a22.11 22.11 0 0 0 21.78 12.73" style="fill:url(#j)"/><path d="M72.05 18.73a22.4 22.4 0 0 0-4.88-8.14 30.3 30.3 0 0 0-9.09-6.49A40.7 40.7 0 0 0 49.14.93a39.9 39.9 0 0 0-16.57-.1C26.89 2 21.89 4.49 18.73 7.56a32.2 32.2 0 0 1 8-3.2 33.57 33.57 0 0 1 31.17 8.1 27.2 27.2 0 0 1 4.33 5.3c4.9 8 4.43 18 .62 23.87-2.8 4.37-8.85 8.5-14.54 8.45A23.62 23.62 0 0 0 70 39.21c4-6.21 4.14-14.15 2.05-20.48" style="fill:url(#k)"/><path d="M72.05 18.73a22.4 22.4 0 0 0-4.88-8.14 30.3 30.3 0 0 0-9.09-6.49A40.7 40.7 0 0 0 49.14.93a39.9 39.9 0 0 0-16.57-.1C26.89 2 21.89 4.49 18.73 7.56a32.2 32.2 0 0 1 8-3.2 33.57 33.57 0 0 1 31.17 8.1 27.2 27.2 0 0 1 4.33 5.3c4.9 8 4.43 18 .62 23.87-2.8 4.37-8.85 8.5-14.54 8.45A23.62 23.62 0 0 0 70 39.21c4-6.21 4.14-14.15 2.05-20.48" style="fill:url(#l)"/><path d="M72 15.7a40 40 0 0 0-3.48-4 31.5 31.5 0 0 0-3.18-2.93 24 24 0 0 1 1.85 1.79A22.5 22.5 0 0 1 72 18.72c2.13 6.33 2 14.28-2 20.47a23.54 23.54 0 0 1-20.86 10.89h-1.09c-15-.9-18.8-16.3-11-22.95-2.11-.45-6.07.43-8.82 4.56-2.47 3.7-2.33 9.41-.81 13.46a21.4 21.4 0 0 1-2-6.33c-2-13.35 7-24.74 15.21-27.55-4.44-3.87-15.55-3.61-23.82 2.47A27.88 27.88 0 0 0 6.77 28.31a38.6 38.6 0 0 1 4.16-13.55c-2.77 1.43-6.29 6-8 10.16A41.36 41.36 0 0 0 .3 45.1c.06.52.11 1 .18 1.55A40.07 40.07 0 1 0 72 15.7" style="fill:url(#m)"/></g></g></svg>